<?xml version="1.0" encoding="UTF-8"?>
<svg width="400px" height="448px" viewBox="0 0 400 448" version="1.1" 
  xmlns="http://www.w3.org/2000/svg" 
  xmlns:xlink="http://www.w3.org/1999/xlink">
  <title>Nuxt.js and GraphQL</title>
  <g id="Page-1" stroke="none" stroke-width="1" fill="none" fill-rule="evenodd">
    <g id="Group" fill-rule="nonzero">
      <g id="graphql" fill="#E535AB">
        <polygon id="Rectangle" transform="translate(120.405486, 178.080114) rotate(-149.999272) translate(-120.405486, -178.080114) " points="110.91998 -4.94443047 129.890991 -4.94443047 129.890991 361.104659 110.91998 361.104659"></polygon>
        <rect id="Rectangle" x="16.9142857" y="306.514286" width="366.057143" height="18.9714286"></rect>
        <polygon id="Rectangle" transform="translate(120.449029, 361.814743) rotate(-149.999272) translate(-120.449029, -361.814743) " points="14.7370686 352.329237 226.160989 352.329237 226.160989 371.300248 14.7370686 371.300248"></polygon>
        <polygon id="Rectangle" transform="translate(279.505486, 86.295886) rotate(-149.999272) translate(-279.505486, -86.295886) " points="173.793526 76.8103801 385.217446 76.8103801 385.217446 95.7813913 173.793526 95.7813913"></polygon>
        <polygon id="Rectangle" transform="translate(120.499771, 86.223657) rotate(-120.000728) translate(-120.499771, -86.223657) " points="111.014266 -19.4883028 129.985277 -19.4883028 129.985277 191.935617 111.014266 191.935617"></polygon>
        <polygon id="Rectangle" transform="translate(279.635657, 178.083543) rotate(-120.000728) translate(-279.635657, -178.083543) " points="96.6111124 168.598037 462.660202 168.598037 462.660202 187.569048 96.6111124 187.569048"></polygon>
        <rect id="Rectangle" x="31.4285714" y="118.285714" width="18.9714286" height="211.428571"></rect>
        <rect id="Rectangle" x="349.6" y="118.285714" width="18.9714286" height="211.428571"></rect>
        <polygon id="Rectangle" transform="translate(279.504686, 361.709257) rotate(-120.000728) translate(-279.504686, -361.709257) " points="271.219154 269.768423 287.790218 269.768423 287.790218 453.650092 271.219154 453.650092"></polygon>
        <path d="M393.714286,335.885714 C382.742857,354.971429 358.285714,361.485714 339.2,350.514286 C320.114286,339.542857 313.6,315.085714 324.571429,296 C335.542857,276.914286 360,270.4 379.085714,281.371429 C398.285714,292.457143 404.8,316.8 393.714286,335.885714" id="Path"></path>
        <path d="M75.3142857,152 C64.3428571,171.085714 39.8857143,177.6 20.8,166.628571 C1.71428571,155.657143 -4.8,131.2 6.17142857,112.114286 C17.1428571,93.0285714 41.6,86.5142857 60.6857143,97.4857143 C79.7714286,108.571429 86.2857143,132.914286 75.3142857,152" id="Path"></path>
        <path d="M6.28571429,335.885714 C-4.68571429,316.8 1.82857143,292.457143 20.9142857,281.371429 C40,270.4 64.3428571,276.914286 75.4285714,296 C86.4,315.085714 79.8857143,339.428571 60.8,350.514286 C41.6,361.485714 17.2571429,354.971429 6.28571429,335.885714" id="Path"></path>
        <path d="M324.685714,152 C313.714286,132.914286 320.228571,108.571429 339.314286,97.4857143 C358.4,86.5142857 382.742857,93.0285714 393.828571,112.114286 C404.8,131.2 398.285714,155.542857 379.2,166.628571 C360.114286,177.6 335.657143,171.085714 324.685714,152" id="Path"></path>
        <path d="M200,447.771429 C177.942857,447.771429 160.114286,429.942857 160.114286,407.885714 C160.114286,385.828571 177.942857,368 200,368 C222.057143,368 239.885714,385.828571 239.885714,407.885714 C239.885714,429.828571 222.057143,447.771429 200,447.771429" id="Path"></path>
        <path d="M200,80 C177.942857,80 160.114286,62.1714286 160.114286,40.1142857 C160.114286,18.0571429 177.942857,0.228571429 200,0.228571429 C222.057143,0.228571429 239.885714,18.0571429 239.885714,40.1142857 C239.885714,62.1714286 222.057143,80 200,80" id="Path"></path>
      </g>
      <g id="nuxt" transform="translate(37.600000, 84.000000)">
        <path d="M185.071844,66.1793417 L173.956457,85.5243145 L135.942839,19.348368 L19.2474044,222.470643 L98.2580088,222.470643 C98.2580088,233.154575 106.875375,241.815623 117.505421,241.815623 L19.2474125,241.815623 C12.371632,241.815623 6.01875512,238.126641 2.58143732,232.14152 C-0.85588048,226.156407 -0.85553132,218.782936 2.582363,212.79816 L119.27779,9.67586956 C122.71592,3.69021091 129.070185,0.00284137748 135.946851,0.00284137748 C142.8235,0.00284137748 149.177766,3.69021091 152.615903,9.67586956 L185.071844,66.1793336 L185.071844,66.1793417 Z" id="Path" fill="#00C58E"></path>
        <path d="M269.31133,212.798152 L196.187223,85.5243145 L185.071836,66.1793417 L173.956465,85.5243145 L100.840372,212.798152 C97.4024856,218.782936 97.4021364,226.156407 100.839454,232.14152 C104.276764,238.126632 110.629649,241.815623 117.505429,241.815623 L252.622229,241.815623 C259.499431,241.815623 265.854939,238.130662 269.294213,232.145011 C272.73348,226.159369 272.733894,218.78418 269.295285,212.798152 L269.31133,212.798152 Z M117.505413,222.470643 L185.071852,104.869295 L252.622229,222.470643 L117.505413,222.470643 L117.505413,222.470643 Z" id="Shape" fill="#2F495E"></path>
        <path d="M321.592097,232.143133 C318.154543,238.127339 311.80217,241.815615 304.927055,241.815615 L252.622213,241.815615 C263.252268,241.815615 271.869618,233.154575 271.869618,222.470643 L304.886942,222.470643 L211.200201,59.3844122 L196.187214,85.5243145 L185.071852,66.1793417 L194.53516,49.7119217 C197.973298,43.7262631 204.327555,40.0388936 211.204221,40.0388936 C218.080878,40.0388936 224.435135,43.7262631 227.873273,49.7119217 L321.592105,212.79816 C325.030324,218.783514 325.030324,226.157771 321.592105,232.143125 L321.592097,232.143133 Z" id="Path" fill="#108775"></path>
      </g>
    </g>
  </g>
</svg>